<svg width="149" height="27" viewBox="0 0 149 27" fill="none" xmlns="http://www.w3.org/2000/svg">
<path fill-rule="evenodd" clip-rule="evenodd" d="M49.3373 26.1701C66.4961 25.1116 65.8225 0.0901604 48.6342 0.05233C42.177 0.0381317 38.0779 3.12755 32.2367 12.4106C29.8241 16.245 29.1625 17.2462 28.1154 18.6478C25.4561 22.2071 23.4478 23.8918 20.3022 25.2021C19.7576 25.4289 19.3009 25.6263 19.2874 25.6408C19.2739 25.6552 19.4465 25.6529 19.671 25.6356C24.5767 25.2571 28.3378 22.5413 34.0236 15.2721C37.5333 10.7849 38.7239 9.46416 40.641 7.93077C46.5553 3.20031 53.5231 3.95122 56.3235 9.62093C59.0044 15.0487 55.1813 21.1604 48.9971 21.3332C46.7522 21.3959 44.9283 20.7587 42.1929 18.9563C39.5907 17.2416 38.0848 17.2733 36.1939 19.0823C35.8019 19.4574 35.7983 19.4391 36.3891 20.0662C40.441 24.3664 44.8539 26.4467 49.3373 26.1701ZM14.8138 26.1521C20.6414 25.5516 24.3085 22.5307 29.6505 13.9302C32.4229 9.46674 33.2512 8.22756 34.5441 6.60966C36.8178 3.76447 39.2908 1.84605 41.9713 0.848148C43.3313 0.341825 43.2795 0.207783 41.8194 0.455137C36.9095 1.28693 33.33 3.99513 27.8147 11.0512C22.8893 17.3525 20.5966 19.3809 16.8785 20.7267C8.00408 23.9387 0.601486 13.8846 7.0817 7.4209C10.5222 3.98919 14.9834 3.98914 20.1732 7.42072C22.3882 8.88535 24.0298 8.77557 25.8422 7.04164C26.2473 6.65403 26.2589 6.66972 24.2072 4.80683C19.5881 0.612726 14.8737 -0.818924 9.83168 0.441347C-2.43677 3.50781 -3.51926 20.6626 8.26268 25.3059C10.0792 26.0218 12.7413 26.3657 14.8138 26.1521Z" fill="#5E4737"/>
<path d="M73.7918 0.0478516H74.8732L72.214 8.24518C72.214 8.24518 71.8693 9.28653 71.1052 9.28653C70.3411 9.28653 70.0609 8.48549 69.9965 8.24518C69.9321 8.00487 67.25 0.0478516 67.25 0.0478516H68.3848L71.1217 8.24518L73.7918 0.0478516Z" fill="#5E4737"/>
<path d="M90.841 9.28809L89.7596 9.28809L92.4188 1.09076C92.4188 1.09076 92.7635 0.0494055 93.5276 0.0494054C94.2917 0.0494054 94.5719 0.850447 94.6363 1.09076C94.7007 1.33107 97.3828 9.28809 97.3828 9.28809L96.248 9.28809L93.5111 1.09076L90.841 9.28809Z" fill="#5E4737"/>
<rect x="75.7422" y="0.263672" width="0.96125" height="9.02507" fill="#5E4737"/>
<path d="M79.1878 0.263672H78.2266V8.31414C78.2265 8.67461 78.2874 8.80697 78.4936 9.01505C78.6987 9.22208 78.8807 9.28874 79.1878 9.28874H82.9661V8.31414H79.1878V0.263672Z" fill="#5E4737"/>
<path d="M85.1409 0.263672H84.1797V8.31414C84.1796 8.67461 84.2405 8.80697 84.4467 9.01505C84.6518 9.22208 84.8339 9.28874 85.1409 9.28874H88.9192V8.31414H85.1409V0.263672Z" fill="#5E4737"/>
<path d="M72.9692 12.4551H71.5092H67.332V13.8745H71.5092V26.1627H72.9692V13.8745H77.1667V12.4551H72.9692Z" fill="#5E4737"/>
<rect x="78.8906" y="12.4551" width="1.45999" height="13.7076" fill="#5E4737"/>
<rect x="131.168" y="12.4551" width="1.45999" height="13.7076" fill="#5E4737"/>
<path d="M104.766 12.4551H103.306H99.1289V13.8745H103.306V26.1627H104.766V13.8745H108.964V12.4551H104.766Z" fill="#5E4737"/>
<path d="M109.775 26.1602L108.132 26.1602L112.171 13.7097C112.171 13.7097 112.695 12.1281 113.855 12.1281C115.016 12.1281 115.442 13.3447 115.539 13.7097C115.637 14.0747 119.711 26.1602 119.711 26.1602L117.987 26.1602L113.83 13.7097L109.775 26.1602Z" fill="#5E4737"/>
<path d="M128.249 12.1289L129.891 12.1289L125.852 24.5793C125.852 24.5793 125.329 26.161 124.168 26.161C123.007 26.161 122.582 24.9443 122.484 24.5793C122.386 24.2143 118.312 12.1289 118.312 12.1289L120.036 12.1289L124.193 24.5793L128.249 12.1289Z" fill="#5E4737"/>
<path d="M141.774 11.9316C145.705 11.9318 148.892 15.1191 148.892 19.0498C148.891 22.9804 145.705 26.1668 141.774 26.167C137.844 26.167 134.656 22.9805 134.656 19.0498C134.656 15.119 137.844 11.9316 141.774 11.9316ZM141.772 13.3906C138.648 13.3907 136.115 15.9234 136.115 19.0479C136.115 22.1723 138.648 24.705 141.772 24.7051C144.897 24.7051 147.43 22.1724 147.43 19.0479C147.43 15.9234 144.897 13.3906 141.772 13.3906Z" fill="#5E4737"/>
<path d="M87.0049 12.04C88.2778 12.0401 89.4067 12.6577 90.1084 13.6094C90.8099 12.6579 91.9383 12.0402 93.2109 12.04H93.5361C95.6636 12.0403 97.3884 13.7652 97.3887 15.8926V26.1533H82.8281V15.8926C82.8284 13.7651 84.5531 12.0401 86.6807 12.04H87.0049ZM86.8438 13.499C85.4775 13.499 84.3693 14.6065 84.3691 15.9727V26.1523H89.3174V15.9727C89.3173 14.6066 88.2097 13.4993 86.8438 13.499ZM93.374 13.499C92.0078 13.499 90.9005 14.6065 90.9004 15.9727V26.1523H95.8477V15.9727C95.8476 14.6065 94.7402 13.4991 93.374 13.499Z" fill="#5E4737"/>
</svg>
